<?xml version="1.0" encoding="utf-8"?>
<!-- Generator: Adobe Illustrator 21.0.0, SVG Export Plug-In . SVG Version: 6.00 Build 0)  -->
<svg version="1.1" id="Capa_1" xmlns="http://www.w3.org/2000/svg" xmlns:xlink="http://www.w3.org/1999/xlink" x="0px" y="0px"
	 viewBox="0 0 408 138" style="enable-background:new 0 0 408 138;" xml:space="preserve">
<style type="text/css">
	.st0{fill:#1F1713;}
	.st1{fill:url(#SVGID_1_);}
	.st2{fill:url(#SVGID_2_);}
	.st3{fill:url(#SVGID_3_);}
	.st4{fill:url(#SVGID_4_);}
	.st5{fill:url(#SVGID_5_);}
	.st6{opacity:0.95;fill:#F6F6F8;}
	.st7{opacity:0.87;fill:#F6F6F8;}
	.st8{fill:#5A5B5E;stroke:#5A5B5E;stroke-width:0.25;stroke-miterlimit:10;}
</style>
<g>
	<path class="st0" d="M200.2,84.3c0,1.4,0,2.5,0.1,3.5c0.1,1,0.3,1.8,0.7,2.4c0.3,0.6,0.9,1.1,1.6,1.4c0.7,0.3,1.7,0.4,2.9,0.4
		c0.6,0,1.3,0,2-0.1c0.7-0.1,1.4-0.2,2.2-0.3l1.3,8.4c-1.4,0.3-2.7,0.5-3.8,0.6c-1.2,0.1-2.2,0.2-3.2,0.2c-3.3,0-5.8-0.4-7.6-1.3
		c-1.8-0.9-3-2-3.9-3.5c-0.8-1.5-1.3-3.3-1.4-5.4c-0.1-2.1-0.2-4.3-0.2-6.8V23.5h9.4V84.3z"/>
	<path class="st0" d="M237.7,48.3c6.9,0,12.8,2.6,17.6,7.6c4.8,5,7.3,11,7.3,17.9v3.3c0,0.5-0.2,0.7-0.7,0.8l-38.1,3.3
		c1.3,2.8,3.3,5,5.9,6.7c2.7,1.7,5.6,2.5,8.7,2.5c2.8,0,5.4-0.7,7.8-2c2.5-1.3,4.4-3.2,5.9-5.5c0.3-0.4,0.6-0.5,1-0.3l7.1,4.2
		c0.5,0.2,0.6,0.6,0.3,1c-2.3,3.8-5.5,6.8-9.5,9c-3.9,2.2-8.1,3.3-12.6,3.3c-7.1,0-13.2-2.5-18.3-7.6c-5.1-5-7.6-11.1-7.6-18.3
		c0-7.3,2.4-13.5,7.3-18.5C224.7,50.7,230.7,48.2,237.7,48.3z M252.3,68.9c-0.8-3.3-2.6-5.9-5.3-7.9c-2.7-2-5.8-3-9.5-3
		c-3.9,0-7.2,1.3-10,3.8c-2.8,2.5-4.5,5.7-5.1,9.7L252.3,68.9z"/>
	<path class="st0" d="M298.6,94.8c0,1.1-0.1,2-0.2,2.7c-0.2,0.7-0.4,1.1-0.7,1.4c-0.3,0.3-0.8,0.6-1.4,0.9c-0.6,0.3-1.3,0.5-2.1,0.7
		c-0.8,0.2-1.6,0.3-2.5,0.4c-0.9,0.1-1.8,0.2-2.7,0.2c-2.7,0-5-0.4-6.9-1.1c-1.9-0.7-3.5-1.8-4.7-3.2c-1.2-1.4-2.1-3.3-2.7-5.5
		c-0.6-2.2-0.8-4.8-0.8-7.8V53.1h-7.3c-0.6,0-1-0.3-1.4-0.9c-0.3-0.6-0.5-1.6-0.5-3c0-0.7,0-1.3,0.1-1.8c0.1-0.5,0.2-0.9,0.4-1.2
		c0.2-0.3,0.4-0.6,0.6-0.7c0.3-0.1,0.5-0.2,0.8-0.2h7.2V32.9c0-0.3,0.1-0.5,0.2-0.8c0.1-0.2,0.4-0.4,0.8-0.6
		c0.4-0.2,0.9-0.3,1.5-0.4c0.6-0.1,1.4-0.1,2.3-0.1c1,0,1.8,0,2.4,0.1c0.6,0.1,1.1,0.2,1.4,0.4s0.6,0.4,0.8,0.6
		c0.2,0.2,0.2,0.5,0.2,0.8v12.3h13.3c0.3,0,0.6,0.1,0.8,0.2c0.2,0.1,0.4,0.4,0.6,0.7c0.2,0.3,0.3,0.7,0.4,1.2
		c0.1,0.5,0.1,1.1,0.1,1.8c0,1.4-0.2,2.4-0.5,3c-0.3,0.6-0.8,0.9-1.4,0.9h-13.3v29c0,3.6,0.5,6.3,1.6,8.1c1.1,1.8,3,2.7,5.7,2.7
		c0.9,0,1.7-0.1,2.4-0.3s1.3-0.4,1.8-0.5c0.5-0.2,1-0.4,1.4-0.5c0.4-0.2,0.7-0.3,1-0.3c0.2,0,0.4,0,0.5,0.1c0.2,0.1,0.3,0.3,0.4,0.5
		c0.1,0.3,0.2,0.6,0.3,1.1C298.6,93.6,298.6,94.1,298.6,94.8z"/>
	<path class="st0" d="M299.6,84l9-1.4c0.5,3.6,1.9,6.4,4.2,8.3c2.3,1.9,5.6,2.9,9.7,2.9c4.2,0,7.3-0.9,9.3-2.6c2-1.7,3-3.7,3-6
		c0-2.1-0.9-3.7-2.7-4.9c-1.3-0.8-4.4-1.8-9.3-3.1c-6.7-1.7-11.3-3.2-13.9-4.4c-2.6-1.2-4.6-2.9-5.9-5.1c-1.3-2.2-2-4.6-2-7.2
		c0-2.4,0.5-4.6,1.7-6.7c1.1-2,2.6-3.7,4.5-5.1c1.4-1,3.4-1.9,5.8-2.7c2.5-0.7,5.1-1.1,7.9-1.1c4.2,0,7.9,0.6,11.1,1.8
		s5.6,2.9,7.1,5s2.6,4.9,3.1,8.4l-8.9,1.2c-0.4-2.8-1.6-4.9-3.5-6.5c-1.9-1.6-4.7-2.3-8.3-2.3c-4.2,0-7.2,0.7-9,2.1
		c-1.8,1.4-2.7,3-2.7,4.9c0,1.2,0.4,2.3,1.1,3.2c0.7,1,1.9,1.8,3.5,2.4c0.9,0.3,3.6,1.1,8.1,2.3c6.5,1.7,11,3.1,13.5,4.2
		c2.6,1.1,4.6,2.7,6,4.8c1.5,2.1,2.2,4.7,2.2,7.8c0,3-0.9,5.9-2.7,8.6s-4.3,4.8-7.7,6.2s-7.1,2.2-11.4,2.2c-7,0-12.3-1.5-16-4.4
		C303,94,300.7,89.7,299.6,84z"/>
</g>
<g>
	<linearGradient id="SVGID_1_" gradientUnits="userSpaceOnUse" x1="76.584" y1="98.8875" x2="140.8029" y2="36.969">
		<stop  offset="0" style="stop-color:#BB2034"/>
		<stop  offset="0.3416" style="stop-color:#CC3333"/>
		<stop  offset="0.5749" style="stop-color:#CC4B33"/>
		<stop  offset="0.8276" style="stop-color:#CC5F33"/>
		<stop  offset="1" style="stop-color:#CC6633"/>
	</linearGradient>
	<path class="st1" d="M94.7,123.9l-42-42c-6.6-6.6-6.6-17.3,0-23.9l43.9-43.9c6.6-6.6,17.3-6.6,23.9,0l42,42
		c6.6,6.6,6.6,17.3,0,23.9l-43.9,43.9C112,130.5,101.3,130.5,94.7,123.9z"/>
	
		<linearGradient id="SVGID_2_" gradientUnits="userSpaceOnUse" x1="68.6395" y1="85.3879" x2="107.4893" y2="85.3879" gradientTransform="matrix(0.9932 -6.799038e-03 -6.799038e-03 0.9932 -13.1385 -13.1385)">
		<stop  offset="0" style="stop-color:#CC3333;stop-opacity:0"/>
		<stop  offset="0.2649" style="stop-color:#CC3333;stop-opacity:0.7"/>
		<stop  offset="0.6683" style="stop-color:#990033"/>
		<stop  offset="0.7496" style="stop-color:#8F0A33"/>
		<stop  offset="0.8882" style="stop-color:#742533"/>
		<stop  offset="0.948" style="stop-color:#663333"/>
	</linearGradient>
	<path class="st2" d="M59.6,88.8l-5.3-5.3l28.4-28.4c0,0,5.1-4.2,10.3,0.2L59.6,88.8z"/>
	
		<linearGradient id="SVGID_3_" gradientUnits="userSpaceOnUse" x1="-827.9189" y1="-318.882" x2="-790.546" y2="-318.882" gradientTransform="matrix(2.1341 0.7328 0.7328 2.1341 2050.6816 1347.1934)">
		<stop  offset="0" style="stop-color:#CC3333;stop-opacity:0"/>
		<stop  offset="0.2252" style="stop-color:#CC3333;stop-opacity:0.7"/>
		<stop  offset="0.5297" style="stop-color:#990033"/>
		<stop  offset="0.6513" style="stop-color:#8F0A33"/>
		<stop  offset="0.8585" style="stop-color:#742533"/>
		<stop  offset="0.948" style="stop-color:#663333"/>
	</linearGradient>
	<path class="st3" d="M75.2,103.8L59.9,88.5l39.8-39.8c12.3-11.1,25.4,6.8,15.3,15.3L75.2,103.8z"/>
	
		<linearGradient id="SVGID_4_" gradientUnits="userSpaceOnUse" x1="-773.6552" y1="-45.725" x2="-738.4252" y2="-45.725" gradientTransform="matrix(1.8733 0.1718 0.1718 1.8733 1529.2786 299.6379)">
		<stop  offset="0" style="stop-color:#CC3333;stop-opacity:0"/>
		<stop  offset="0.4084" style="stop-color:#CC3333;stop-opacity:0.7"/>
		<stop  offset="0.6683" style="stop-color:#990033"/>
		<stop  offset="0.7496" style="stop-color:#8F0A33"/>
		<stop  offset="0.8882" style="stop-color:#742533"/>
		<stop  offset="0.948" style="stop-color:#663333"/>
	</linearGradient>
	<path class="st4" d="M85.2,115l-10.9-10.9l48.4-48.4c6.8-6.6,17.8,2.9,10.9,10.9L85.2,115z"/>
	
		<linearGradient id="SVGID_5_" gradientUnits="userSpaceOnUse" x1="-767.0053" y1="-92.518" x2="-732.8204" y2="-92.518" gradientTransform="matrix(1.9661 0.3553 0.3553 1.9661 1621.937 546.5709)">
		<stop  offset="0" style="stop-color:#CC3333;stop-opacity:0"/>
		<stop  offset="0.4084" style="stop-color:#CC3333;stop-opacity:0.7"/>
		<stop  offset="0.6683" style="stop-color:#990033"/>
		<stop  offset="0.7496" style="stop-color:#8F0A33"/>
		<stop  offset="0.8882" style="stop-color:#742533"/>
		<stop  offset="0.948" style="stop-color:#663333"/>
	</linearGradient>
	<path class="st5" d="M97.6,127.3l-12.4-12.4L131,69.1c4.1,0,11.3,2.5,12.9,10.9c-0.2,0.5-0.8,1.4-0.8,1.4L97.6,127.3z"/>
	<g>
		<circle class="st6" cx="108" cy="56" r="11"/>
		<path class="st6" d="M125.8,85.9c-4.7,7.9-29.1,10.9-36.3,0c0-10,8.1-18.2,18.2-18.2C117.7,67.7,125.8,75.8,125.8,85.9z"/>
	</g>
	<g>
		<ellipse transform="matrix(0.1756 -0.9845 0.9845 0.1756 11.5895 136.8399)" class="st7" cx="87.5" cy="61.5" rx="7.5" ry="7.5"/>
		<path class="st7" d="M96.8,84.3c-4.2,4.9-21.6,4-25.3-4.5c1.2-7,7.9-11.6,14.9-10.4C93.4,70.6,98,77.3,96.8,84.3z"/>
	</g>
	<g>
		<ellipse transform="matrix(0.9882 -0.1535 0.1535 0.9882 -7.9155 20.4474)" class="st7" cx="128.5" cy="61.5" rx="7.5" ry="7.5"/>
		<path class="st7" d="M143.9,80.1c-2.4,6-19.1,10.7-25.3,3.9c-1.1-7,3.7-13.6,10.7-14.6C136.3,68.3,142.8,73.1,143.9,80.1z"/>
	</g>
</g>
<g>
	<path class="st8" d="M208.6,106.5c0,0,0.1-0.1,0.1-0.1h0.1c0.1,0,0.2,0.1,0.2,0.2v19.8c0,0.1-0.1,0.2-0.2,0.2h-0.9
		c-0.1,0-0.2-0.1-0.2-0.2v-16.9l-6.7,7.4c-0.1,0.1-0.2,0.1-0.3,0l-6.7-7.4v16.9c0,0.1-0.1,0.2-0.2,0.2H193c-0.1,0-0.2-0.1-0.2-0.2
		v-19.8c0-0.1,0.1-0.2,0.2-0.2h0.1c0.1,0,0.1,0,0.1,0.1l7.7,8.6L208.6,106.5z"/>
	<path class="st8" d="M223.6,126.6c-0.1,0-0.2-0.1-0.2-0.2c-0.1-0.7-0.2-1.3-0.2-1.9c-0.3,0.4-0.6,0.7-0.9,0.9c-0.6,0.5-1.2,0.8-2,1
		c-0.7,0.2-1.5,0.2-2.3,0.1c-0.5-0.1-0.9-0.2-1.2-0.4c-0.4-0.2-0.8-0.5-1-0.9c-0.5-0.6-0.7-1.5-0.6-2.5c0-0.5,0.2-0.9,0.4-1.3
		c0.2-0.4,0.5-0.7,0.8-1c0.5-0.4,1.2-0.7,2-0.9c0.5-0.1,1.1-0.2,1.8-0.3c0.5,0,1,0,1.5,0c0.2,0,0.4,0,0.6,0c0.1,0,0.3,0,0.5,0l0.2,0
		c0-1.4-0.3-2.4-0.8-3c-0.5-0.5-1.2-0.7-2.3-0.7c-0.8,0-1.5,0.1-2.1,0.4c-0.2,0.1-0.5,0.2-0.7,0.4c-0.1,0-0.2,0.1-0.2,0.2
		c-0.1,0-0.1,0.1-0.2,0.1c-0.1,0.1-0.2,0.1-0.3,0l-0.7-0.6c-0.1-0.1-0.1-0.2,0-0.3c0.1-0.1,0.1-0.1,0.2-0.2c0.1-0.1,0.2-0.2,0.3-0.2
		c0.3-0.2,0.5-0.3,0.8-0.5c0.8-0.4,1.8-0.6,2.8-0.6c1.4,0,2.5,0.4,3.2,1.1c0.6,0.6,0.9,1.4,1.1,2.4c0.1,0.4,0.1,0.8,0.1,1.4v0.7v0.7
		c0,0.3,0,0.6,0,0.8c0,0.7,0,1.6,0.1,2.6c0.1,0.7,0.1,1.5,0.2,2.3c0,0.1,0,0.2-0.2,0.2H223.6z M222.5,123.4c0.2-0.4,0.4-0.8,0.5-1.2
		l0.1-0.3l0-0.4l0-0.4v-0.4c-0.1,0-0.2,0-0.3,0c-0.4,0-0.8-0.1-1.1-0.1c-0.5,0-1,0-1.4,0c-0.6,0-1.1,0.1-1.6,0.2
		c-0.6,0.2-1.1,0.4-1.5,0.7c-0.4,0.3-0.6,0.8-0.7,1.4c0,0.7,0.1,1.2,0.4,1.6c0.3,0.4,0.7,0.7,1.4,0.8c0.6,0.1,1.2,0.1,1.8,0
		c0.6-0.1,1.1-0.4,1.5-0.7C221.9,124.2,222.3,123.9,222.5,123.4z"/>
	<path class="st8" d="M241.2,126.3c0,0.1,0.1,0.1,0,0.2c0,0.1-0.1,0.1-0.2,0.1h-1.2c-0.1,0-0.1,0-0.2-0.1l-5.4-6.5l-1.3,1.3v5.1
		c0,0.1-0.1,0.2-0.2,0.2h-0.9c-0.1,0-0.2-0.1-0.2-0.2v-19.7c0-0.1,0.1-0.2,0.2-0.2h0.9c0.1,0,0.2,0.1,0.2,0.2v12.8l5.2-5
		c0,0,0.1-0.1,0.1-0.1h1.3c0.1,0,0.1,0,0.2,0.1c0,0.1,0,0.2,0,0.2l-4.5,4.4L241.2,126.3z"/>
	<path class="st8" d="M246,124.8c-1.2-1.2-1.8-2.6-1.8-4.3c0-1.7,0.6-3.2,1.7-4.4c1.1-1.2,2.5-1.8,4.2-1.8c1.6,0,3,0.6,4.1,1.8
		c1.1,1.2,1.7,2.6,1.7,4.2v0.3c0,0.1-0.1,0.2-0.2,0.2l-10.1,0.9c0.3,1,0.8,1.9,1.7,2.5c0.9,0.7,1.8,1,2.9,1c0.8,0,1.6-0.2,2.3-0.6
		c0.7-0.4,1.3-0.9,1.7-1.6c0.1-0.1,0.2-0.1,0.3-0.1l0.8,0.5c0.1,0.1,0.1,0.2,0.1,0.3c-0.6,0.9-1.3,1.6-2.2,2.1
		c-0.9,0.5-1.9,0.8-3,0.8C248.6,126.6,247.2,126,246,124.8z M246.9,117.1c-0.9,0.9-1.3,2-1.3,3.4l9.1-0.8c-0.1-1.2-0.6-2.1-1.5-2.8
		c-0.8-0.7-1.9-1.1-3.1-1.1C248.8,115.7,247.7,116.2,246.9,117.1z"/>
	<path class="st8" d="M280,106.4c1.5,0,2.8,0.5,3.8,1.6c1.1,1,1.6,2.3,1.6,3.8c0,1.5-0.5,2.8-1.6,3.9c-1.1,1.1-2.4,1.6-3.9,1.6h-6
		v9.2c0,0.1-0.1,0.2-0.2,0.2h-0.9c-0.1,0-0.2-0.1-0.2-0.2v-19.8c0-0.1,0.1-0.2,0.2-0.2H280z M280,116c1.1,0,2.1-0.4,2.9-1.2
		c0.8-0.8,1.2-1.8,1.2-2.9c0-1.1-0.4-2.1-1.2-2.9c-0.8-0.8-1.8-1.2-2.9-1.2h-6.1v8.2H280z"/>
	<path class="st8" d="M297,114.5c0.1,0,0.2,0.1,0.2,0.2l-0.2,0.9c0,0.1-0.1,0.2-0.2,0.2c-0.2,0-0.3,0-0.5,0c-1,0-1.8,0.3-2.5,1
		c-0.7,0.7-1,1.5-1,2.5v7.2c0,0.1-0.1,0.2-0.2,0.2h-0.9c-0.1,0-0.2-0.1-0.2-0.2v-11.9c0-0.1,0.1-0.2,0.2-0.2h0.9
		c0.1,0,0.2,0.1,0.2,0.2v1.4c1-1,2.1-1.5,3.5-1.5C296.5,114.5,296.7,114.5,297,114.5z"/>
	<path class="st8" d="M302.5,124.8c-1.2-1.2-1.8-2.6-1.8-4.3c0-1.7,0.6-3.1,1.8-4.3c1.2-1.2,2.6-1.8,4.3-1.8c1.7,0,3.1,0.6,4.3,1.8
		c1.2,1.2,1.8,2.6,1.8,4.3c0,1.7-0.6,3.1-1.8,4.3c-1.2,1.2-2.6,1.8-4.3,1.8C305.1,126.6,303.7,126,302.5,124.8z M303.4,117.1
		c-0.9,0.9-1.4,2.1-1.4,3.4c0,1.3,0.5,2.4,1.4,3.4c0.9,0.9,2.1,1.4,3.4,1.4c1.3,0,2.4-0.5,3.4-1.4c0.9-0.9,1.4-2.1,1.4-3.4
		c0-1.3-0.5-2.5-1.4-3.4c-0.9-0.9-2.1-1.4-3.4-1.4C305.5,115.7,304.4,116.2,303.4,117.1z"/>
	<path class="st8" d="M318.8,115.7c-0.1,0-0.2-0.1-0.2-0.2v-0.9c0-0.1,0.1-0.2,0.2-0.2h4.7c0.1,0,0.2,0.1,0.2,0.2v0.9
		c0,0.1-0.1,0.2-0.2,0.2H318.8z M320.2,126.6c-0.1,0-0.2-0.1-0.2-0.2v-16.3c0-0.7,0.1-1.3,0.5-1.9c0.3-0.6,0.7-1,1.3-1.2
		c0.5-0.3,1.1-0.3,1.6-0.3c0.6,0.1,1.1,0.3,1.7,0.6c0.1,0.1,0.1,0.2,0,0.3l-0.6,0.7c-0.1,0.1-0.2,0.1-0.3,0
		c-0.7-0.5-1.3-0.5-1.9-0.2c-0.7,0.3-1,1-1,1.9v16.3c0,0.1-0.1,0.2-0.2,0.2H320.2z"/>
	<path class="st8" d="M330.3,111.2c-0.2,0.2-0.4,0.3-0.7,0.3c-0.3,0-0.5-0.1-0.7-0.3c-0.2-0.2-0.3-0.4-0.3-0.7s0.1-0.5,0.3-0.7
		c0.2-0.2,0.4-0.3,0.7-0.3c0.3,0,0.5,0.1,0.7,0.3c0.2,0.2,0.3,0.4,0.3,0.7S330.5,111,330.3,111.2z M329.2,126.6
		c-0.1,0-0.2-0.1-0.2-0.2v-11.8c0-0.1,0.1-0.2,0.2-0.2h0.9c0.1,0,0.2,0.1,0.2,0.2v11.8c0,0.1-0.1,0.2-0.2,0.2H329.2z"/>
	<path class="st8" d="M343.9,125.7c0.1,0.1,0.1,0.2,0,0.3c-0.6,0.4-1.2,0.6-1.9,0.6c-0.4,0-0.9-0.1-1.2-0.3
		c-0.5-0.3-0.9-0.6-1.2-1.2c-0.3-0.5-0.4-1.1-0.4-1.8v-7.7h-1.7c-0.1,0-0.2-0.1-0.2-0.2v-0.9c0-0.1,0.1-0.2,0.2-0.2h1.7l0-3.5
		c0-0.1,0.1-0.2,0.2-0.2h0.9c0.1,0,0.2,0.1,0.2,0.2v3.5h1.9c0.1,0,0.2,0.1,0.2,0.2v0.9c0,0.1-0.1,0.2-0.2,0.2h-1.9v7.7
		c0,0.9,0.3,1.5,0.9,1.8c0.5,0.3,1.1,0.2,1.7-0.2c0.1-0.1,0.2-0.1,0.3,0L343.9,125.7z"/>
</g>
</svg>
